mastitorrents.com
 
http://mastitorrents.com/forums/index.php

 Genre............: Comedy | Drama | Romance

Year.............: 2007

IMDb Link........: http://www.imdb.com/title/tt0795434/

Source...........: Untouched BlueRay @ DDR

Re*Encoder...........: (Aamir) -DUS



General

Complete name : E:\Namastey London (2007) BDRip 720p 1.2 DVD5 X264 AC3 5.1 Chapters & Sub [DUS]\Namastey London (2007) BDRip 720p 1.2 DVD5 X264 AC3 5.1 Chapters & Sub [DUS].mkv

Format : Matroska

File size : 2.18 GiB

Duration : 2h 16mn

Overall bit rate : 2 280 Kbps

Encoded date : UTC 2010-09-01 23:38:05

Writing application : mkvmerge v2.9.5 ('Tu es le seul') built on Jun 7 2009 11:07:07

Writing library : libebml v0.7.7 + libmatroska v0.8.1


Video

ID : 1

Format : AVC

Format/Info : Advanced Video Codec

Format profile : Main@L4.1

Format settings, CABAC : Yes

Format settings, ReFrames : 4 frames

Muxing mode : Container profile=Unknown@4.1

Codec ID : V_MPEG4/ISO/AVC

Duration : 2h 16mn

Bit rate : 2 043 Kbps

Nominal bit rate : 2 085 Kbps

Width : 1 280 pixels

Height : 544 pixels

Display aspect ratio : 2.35:1

Frame rate : 23.976 fps

Resolution : 8 bits

Colorimetry : 4:2:0

Scan type : Progressive

Bits/(Pixel*Frame) : 0.122

Stream size : 1.95 GiB (90%)

Title : Aamir@DUS

Writing library : x264 core 98 r1649 c54c47d

Encoding settings : cabac=1 / ref=3 / deblock=1:-1:-1 / analyse=0x1:0 / me=dia / subme=8 / psy=1 / psy_rd=1.00:0.00 / mixed_ref=1 / me_range=16 / chroma_me=1 / trellis=2 / 8x8dct=0 / cqm=0 / deadzone=21,11 / fast_pskip=1 / chroma_qp_offset=-2 / threads=3 / sliced_threads=0 / nr=0 / decimate=1 / interlaced=0 / constrained_intra=0 / bframes=16 / b_pyramid=2 / b_adapt=1 / b_bias=0 / direct=3 / weightb=1 / weightp=2 / keyint=250 / keyint_min=25 / scenecut=40 / intra_refresh=0 / rc=2pass / mbtree=0 / bitrate=2085 / ratetol=1.0 / qcomp=0.60 / qpmin=10 / qpmax=51 / qpstep=4 / cplxblur=20.0 / qblur=0.5 / ip_ratio=1.40 / pb_ratio=1.30 / aq=1:1.00

Language : English


Audio

ID : 2

Format : AC-3

Format/Info : Audio Coding 3

Codec ID : A_AC3

Duration : 2h 16mn

Bit rate mode : Constant

Bit rate : 192 Kbps

Channel(s) : 6 channels

Channel positions : Front: L C R, Side: L R, LFE

Sampling rate : 48.0 KHz

Stream size : 188 MiB (8%)

Title : Aamir@DUS

Language : Hindi


Text

ID : 3

Format : VobSub

Codec ID : S_VOBSUB

Codec ID/Info : The same subtitle format used on DVDs

Title : Aamir@DUS

Language : English


Menu

00:00:00.000 : en:00:00:00.000

00:00:57.766 : en:00:00:57.766

00:04:01.032 : en:00:04:01.032

00:06:11.037 : en:00:06:11.037

00:13:46.701 : en:00:13:46.701

00:18:49.545 : en:00:18:49.545

00:23:00.129 : en:00:23:00.129

00:27:07.292 : en:00:27:07.292

00:32:46.715 : en:00:32:46.715

00:35:01.808 : en:00:35:01.808

00:40:35.683 : en:00:40:35.683

00:51:21.745 : en:00:51:21.745

00:54:54.041 : en:00:54:54.041

01:00:11.358 : en:01:00:11.358

01:03:47.449 : en:01:03:47.449

01:15:00.037 : en:01:15:00.037

01:21:24.004 : en:01:21:24.004

01:24:06.041 : en:01:24:06.041

01:29:21.439 : en:01:29:21.439

01:33:31.606 : en:01:33:31.606

01:39:49.775 : en:01:39:49.775

01:45:39.833 : en:01:45:39.833

01:50:41.718 : en:01:50:41.718

02:05:51.043 : en:02:05:51.043




Ripper Notes:

Njoy